<svg width="12" height="10" viewBox="0 0 12 10" fill="none" xmlns="http://www.w3.org/2000/svg">
<path d="M6 2.5C6 1.96957 5.78929 1.46086 5.41421 1.08579C5.03914 0.710714 4.53043 0.5 4 0.5H1V8H4.5C4.89782 8 5.27936 8.15804 5.56066 8.43934C5.84197 8.72064 6 9.10218 6 9.5M6 2.5V9.5M6 2.5C6 1.96957 6.21071 1.46086 6.58579 1.08579C6.96086 0.710714 7.46957 0.5 8 0.5H11V8H7.5C7.10218 8 6.72064 8.15804 6.43934 8.43934C6.15804 8.72064 6 9.10218 6 9.5" stroke="currentColor" stroke-linecap="round" stroke-linejoin="round"/>
</svg>
